<svg width="230" height="84" viewBox="0 0 230 84" fill="none" xmlns="http://www.w3.org/2000/svg">
<path d="M47.4033 78.8243C47.4033 78.3739 47.5277 77.9865 47.7766 77.6622C48.0343 77.3288 48.3854 77.0721 48.8298 76.8919C49.2743 76.7117 49.7898 76.6216 50.3764 76.6216C50.6875 76.6216 51.0164 76.6486 51.363 76.7027C51.7097 76.7477 52.0163 76.8198 52.2829 76.9189V76.4054C52.2829 75.8649 52.123 75.4414 51.803 75.1351C51.483 74.8198 51.0297 74.6622 50.4431 74.6622C50.0609 74.6622 49.692 74.7342 49.3365 74.8784C48.9898 75.0135 48.621 75.2117 48.2299 75.473L47.8032 74.6351C48.2565 74.3198 48.7098 74.0856 49.1631 73.9324C49.6165 73.7703 50.0875 73.6892 50.5764 73.6892C51.4652 73.6892 52.1674 73.9414 52.6829 74.4459C53.1984 74.9414 53.4562 75.6351 53.4562 76.527V79.5135C53.4562 79.6577 53.4829 79.7658 53.5362 79.8378C53.5984 79.9009 53.6962 79.9369 53.8295 79.9459V80.8649C53.714 80.8829 53.6118 80.8964 53.5229 80.9054C53.4429 80.9144 53.3762 80.9189 53.3229 80.9189C53.0473 80.9189 52.8385 80.8423 52.6963 80.6892C52.5629 80.536 52.4874 80.3739 52.4696 80.2027L52.4429 79.7568C52.1407 80.1532 51.7452 80.4595 51.2563 80.6757C50.7675 80.8919 50.2831 81 49.8031 81C49.3409 81 48.9276 80.9054 48.5632 80.7162C48.1988 80.518 47.9143 80.2568 47.7099 79.9324C47.5055 79.5991 47.4033 79.2297 47.4033 78.8243ZM51.9363 79.3243C52.043 79.1982 52.1274 79.0721 52.1896 78.9459C52.2518 78.8108 52.2829 78.6982 52.2829 78.6081V77.7297C52.0074 77.6216 51.7185 77.5405 51.4163 77.4865C51.1141 77.4234 50.8164 77.3919 50.5231 77.3919C49.9275 77.3919 49.4431 77.5135 49.0698 77.7568C48.7054 77.991 48.5232 78.3153 48.5232 78.7297C48.5232 78.955 48.581 79.1757 48.6965 79.3919C48.8209 79.5991 48.9987 79.7703 49.2298 79.9054C49.4698 80.0405 49.7631 80.1081 50.1098 80.1081C50.4742 80.1081 50.8208 80.036 51.1497 79.8919C51.4786 79.7387 51.7408 79.5495 51.9363 79.3243Z" fill="#878787"/>
<path d="M57.7187 81C57.141 81 56.5988 80.9054 56.0922 80.7162C55.5856 80.518 55.15 80.2252 54.7856 79.8378L55.2389 79C55.6389 79.3784 56.0389 79.6486 56.4388 79.8108C56.8388 79.973 57.2477 80.0541 57.6654 80.0541C58.1454 80.0541 58.5365 79.964 58.8387 79.7838C59.1409 79.5946 59.292 79.3198 59.292 78.9595C59.292 78.6982 59.212 78.5045 59.052 78.3784C58.9009 78.2523 58.6831 78.1486 58.3987 78.0676C58.1143 77.9775 57.7765 77.8784 57.3854 77.7703C56.9055 77.6261 56.501 77.473 56.1722 77.3108C55.8433 77.1486 55.5944 76.9459 55.4256 76.7027C55.2567 76.4595 55.1722 76.1532 55.1722 75.7838C55.1722 75.3333 55.2878 74.955 55.5189 74.6486C55.75 74.3333 56.0655 74.0946 56.4655 73.9324C56.8744 73.7703 57.3366 73.6892 57.8521 73.6892C58.3676 73.6892 58.8342 73.7703 59.252 73.9324C59.6697 74.0946 60.0297 74.3333 60.3319 74.6486L59.7986 75.473C59.5231 75.1847 59.2209 74.973 58.892 74.8378C58.5631 74.6937 58.1943 74.6216 57.7854 74.6216C57.5454 74.6216 57.3099 74.6532 57.0788 74.7162C56.8477 74.7703 56.6566 74.8739 56.5055 75.027C56.3544 75.1712 56.2788 75.3784 56.2788 75.6486C56.2788 75.8739 56.3366 76.0541 56.4522 76.1892C56.5766 76.3153 56.7544 76.4234 56.9855 76.5135C57.2254 76.6036 57.5143 76.7027 57.8521 76.8108C58.3765 76.964 58.8298 77.1171 59.212 77.2703C59.6031 77.4234 59.9053 77.6216 60.1186 77.8649C60.3319 78.1081 60.4386 78.4459 60.4386 78.8784C60.4386 79.545 60.1897 80.0676 59.692 80.4459C59.1942 80.8153 58.5365 81 57.7187 81Z" fill="#878787"/>
<path d="M64.2288 81C63.651 81 63.1088 80.9054 62.6022 80.7162C62.0956 80.518 61.66 80.2252 61.2956 79.8378L61.7489 79C62.1489 79.3784 62.5489 79.6486 62.9488 79.8108C63.3488 79.973 63.7577 80.0541 64.1754 80.0541C64.6554 80.0541 65.0465 79.964 65.3487 79.7838C65.6509 79.5946 65.802 79.3198 65.802 78.9595C65.802 78.6982 65.722 78.5045 65.562 78.3784C65.4109 78.2523 65.1931 78.1486 64.9087 78.0676C64.6243 77.9775 64.2865 77.8784 63.8954 77.7703C63.4155 77.6261 63.0111 77.473 62.6822 77.3108C62.3533 77.1486 62.1044 76.9459 61.9356 76.7027C61.7667 76.4595 61.6822 76.1532 61.6822 75.7838C61.6822 75.3333 61.7978 74.955 62.0289 74.6486C62.26 74.3333 62.5755 74.0946 62.9755 73.9324C63.3844 73.7703 63.8466 73.6892 64.3621 73.6892C64.8776 73.6892 65.3442 73.7703 65.762 73.9324C66.1797 74.0946 66.5397 74.3333 66.8419 74.6486L66.3086 75.473C66.0331 75.1847 65.7309 74.973 65.402 74.8378C65.0731 74.6937 64.7043 74.6216 64.2954 74.6216C64.0554 74.6216 63.8199 74.6532 63.5888 74.7162C63.3577 74.7703 63.1666 74.8739 63.0155 75.027C62.8644 75.1712 62.7888 75.3784 62.7888 75.6486C62.7888 75.8739 62.8466 76.0541 62.9622 76.1892C63.0866 76.3153 63.2644 76.4234 63.4955 76.5135C63.7354 76.6036 64.0243 76.7027 64.3621 76.8108C64.8865 76.964 65.3398 77.1171 65.722 77.2703C66.1131 77.4234 66.4153 77.6216 66.6286 77.8649C66.8419 78.1081 66.9486 78.4459 66.9486 78.8784C66.9486 79.545 66.6997 80.0676 66.202 80.4459C65.7042 80.8153 65.0465 81 64.2288 81Z" fill="#878787"/>
<path d="M68.3522 80.8649V73.8108H69.5255V80.8649H68.3522ZM68.3522 72.4865V71H69.5255V72.4865H68.3522Z" fill="#878787"/>
<path d="M73.8115 81C73.2337 81 72.6915 80.9054 72.1849 80.7162C71.6783 80.518 71.2427 80.2252 70.8783 79.8378L71.3316 79C71.7316 79.3784 72.1316 79.6486 72.5316 79.8108C72.9315 79.973 73.3404 80.0541 73.7581 80.0541C74.2381 80.0541 74.6292 79.964 74.9314 79.7838C75.2336 79.5946 75.3847 79.3198 75.3847 78.9595C75.3847 78.6982 75.3047 78.5045 75.1447 78.3784C74.9936 78.2523 74.7759 78.1486 74.4914 78.0676C74.207 77.9775 73.8693 77.8784 73.4782 77.7703C72.9982 77.6261 72.5938 77.473 72.2649 77.3108C71.936 77.1486 71.6872 76.9459 71.5183 76.7027C71.3494 76.4595 71.265 76.1532 71.265 75.7838C71.265 75.3333 71.3805 74.955 71.6116 74.6486C71.8427 74.3333 72.1582 74.0946 72.5582 73.9324C72.9671 73.7703 73.4293 73.6892 73.9448 73.6892C74.4603 73.6892 74.927 73.7703 75.3447 73.9324C75.7625 74.0946 76.1224 74.3333 76.4246 74.6486L75.8913 75.473C75.6158 75.1847 75.3136 74.973 74.9847 74.8378C74.6559 74.6937 74.287 74.6216 73.8781 74.6216C73.6382 74.6216 73.4026 74.6532 73.1715 74.7162C72.9404 74.7703 72.7493 74.8739 72.5982 75.027C72.4471 75.1712 72.3716 75.3784 72.3716 75.6486C72.3716 75.8739 72.4293 76.0541 72.5449 76.1892C72.6693 76.3153 72.8471 76.4234 73.0782 76.5135C73.3182 76.6036 73.607 76.7027 73.9448 76.8108C74.4692 76.964 74.9225 77.1171 75.3047 77.2703C75.6958 77.4234 75.998 77.6216 76.2113 77.8649C76.4246 78.1081 76.5313 78.4459 76.5313 78.8784C76.5313 79.545 76.2824 80.0676 75.7847 80.4459C75.2869 80.8153 74.6292 81 73.8115 81Z" fill="#878787"/>
<path d="M81.5347 80.5135C81.437 80.5586 81.3036 80.6171 81.1348 80.6892C80.9659 80.7613 80.7703 80.8243 80.5481 80.8784C80.3259 80.9324 80.0904 80.9595 79.8415 80.9595C79.5571 80.9595 79.2949 80.9099 79.0549 80.8108C78.8149 80.7027 78.6238 80.5405 78.4816 80.3243C78.3394 80.0991 78.2683 79.8198 78.2683 79.4865V74.7432H77.3217V73.8108H78.2683V71.4595H79.4415V73.8108H81.0014V74.7432H79.4415V79.1216C79.4593 79.3739 79.5438 79.5631 79.6949 79.6892C79.846 79.8063 80.0237 79.8649 80.2282 79.8649C80.4592 79.8649 80.6726 79.8243 80.8681 79.7432C81.0637 79.6622 81.1925 79.6036 81.2548 79.5676L81.5347 80.5135Z" fill="#878787"/>
<path d="M82.0755 78.8243C82.0755 78.3739 82.2 77.9865 82.4488 77.6622C82.7066 77.3288 83.0577 77.0721 83.5021 76.8919C83.9465 76.7117 84.462 76.6216 85.0487 76.6216C85.3598 76.6216 85.6886 76.6486 86.0353 76.7027C86.3819 76.7477 86.6886 76.8198 86.9552 76.9189V76.4054C86.9552 75.8649 86.7952 75.4414 86.4753 75.1351C86.1553 74.8198 85.702 74.6622 85.1153 74.6622C84.7331 74.6622 84.3643 74.7342 84.0087 74.8784C83.6621 75.0135 83.2932 75.2117 82.9021 75.473L82.4755 74.6351C82.9288 74.3198 83.3821 74.0856 83.8354 73.9324C84.2887 73.7703 84.7598 73.6892 85.2487 73.6892C86.1375 73.6892 86.8397 73.9414 87.3552 74.4459C87.8707 74.9414 88.1285 75.6351 88.1285 76.527V79.5135C88.1285 79.6577 88.1551 79.7658 88.2085 79.8378C88.2707 79.9009 88.3685 79.9369 88.5018 79.9459V80.8649C88.3862 80.8829 88.284 80.8964 88.1951 80.9054C88.1152 80.9144 88.0485 80.9189 87.9952 80.9189C87.7196 80.9189 87.5107 80.8423 87.3685 80.6892C87.2352 80.536 87.1597 80.3739 87.1419 80.2027L87.1152 79.7568C86.813 80.1532 86.4175 80.4595 85.9286 80.6757C85.4398 80.8919 84.9554 81 84.4754 81C84.0132 81 83.5999 80.9054 83.2355 80.7162C82.871 80.518 82.5866 80.2568 82.3822 79.9324C82.1777 79.5991 82.0755 79.2297 82.0755 78.8243ZM86.6086 79.3243C86.7152 79.1982 86.7997 79.0721 86.8619 78.9459C86.9241 78.8108 86.9552 78.6982 86.9552 78.6081V77.7297C86.6797 77.6216 86.3908 77.5405 86.0886 77.4865C85.7864 77.4234 85.4886 77.3919 85.1953 77.3919C84.5998 77.3919 84.1154 77.5135 83.7421 77.7568C83.3777 77.991 83.1955 78.3153 83.1955 78.7297C83.1955 78.955 83.2532 79.1757 83.3688 79.3919C83.4932 79.5991 83.671 79.7703 83.9021 79.9054C84.1421 80.0405 84.4354 80.1081 84.782 80.1081C85.1464 80.1081 85.4931 80.036 85.822 79.8919C86.1508 79.7387 86.413 79.5495 86.6086 79.3243Z" fill="#878787"/>
<path d="M96.0441 80.8649H94.8709V76.9189C94.8709 76.1712 94.7553 75.6261 94.5242 75.2838C94.302 74.9324 93.9598 74.7568 93.4976 74.7568C93.1776 74.7568 92.8577 74.8378 92.5377 75C92.2266 75.1622 91.9466 75.3829 91.6977 75.6622C91.4577 75.9324 91.2844 76.2477 91.1778 76.6081V80.8649H90.0045V73.8108H91.0711V75.3243C91.2578 74.991 91.4977 74.7027 91.7911 74.4595C92.0844 74.2162 92.4177 74.027 92.791 73.8919C93.1643 73.7568 93.5554 73.6892 93.9643 73.6892C94.3642 73.6892 94.6975 73.7658 94.9642 73.9189C95.2397 74.0631 95.453 74.2703 95.6042 74.5405C95.7641 74.8018 95.8752 75.1126 95.9375 75.473C96.0086 75.8333 96.0441 76.2252 96.0441 76.6486V80.8649Z" fill="#878787"/>
<path d="M101.403 80.5135C101.305 80.5586 101.172 80.6171 101.003 80.6892C100.834 80.7613 100.639 80.8243 100.417 80.8784C100.194 80.9324 99.9589 80.9595 99.71 80.9595C99.4256 80.9595 99.1634 80.9099 98.9234 80.8108C98.6834 80.7027 98.4923 80.5405 98.3501 80.3243C98.2079 80.0991 98.1368 79.8198 98.1368 79.4865V74.7432H97.1902V73.8108H98.1368V71.4595H99.3101V73.8108H100.87V74.7432H99.3101V79.1216C99.3278 79.3739 99.4123 79.5631 99.5634 79.6892C99.7145 79.8063 99.8922 79.8649 100.097 79.8649C100.328 79.8649 100.541 79.8243 100.737 79.7432C100.932 79.6622 101.061 79.6036 101.123 79.5676L101.403 80.5135Z" fill="#878787"/>
<g clip-path="url(#clip0_5_107)">
<path d="M184.059 49.2141C181.513 48.5976 179.313 47.0246 179.682 44.0305C180.422 38.0221 178.383 42.3578 177.895 44.3235C177.781 44.7819 177.669 45.2032 177.562 45.5954V54.4972C177.952 54.6079 178.379 54.6012 178.79 54.4518L183.247 52.8293C184.285 52.4515 184.82 51.3038 184.442 50.2659L184.059 49.2141Z" fill="white"/>
<path d="M163.107 53.6619L160.82 52.8296C159.782 52.4518 159.246 51.3041 159.624 50.2661L160.281 48.4612C160.604 47.5737 160.256 46.5893 159.495 46.0294C158.889 45.5829 158.306 45.1048 157.751 44.5976V33.7194H152.027C156.061 32.7381 159.041 29.2837 159.041 25.1729C159.041 21.8572 157.103 18.9686 154.236 17.4603C154.292 17.3731 154.349 17.2863 154.407 17.1999C154.933 16.4133 154.925 15.3667 154.317 14.6419L153.084 13.1726C152.374 12.3264 152.484 11.0649 153.33 10.3549L156.964 7.30596C157.81 6.596 159.072 6.70635 159.782 7.55244L161.011 9.01757C161.62 9.74275 162.649 9.93227 163.516 9.55053C164.347 9.1843 165.206 8.8699 166.088 8.6115C166.996 8.34577 167.662 7.53918 167.662 6.59345V4.68417C167.662 3.5796 168.557 2.68417 169.662 2.68417H174.405C175.51 2.68417 176.405 3.5796 176.405 4.68417V6.59349C176.405 7.5392 177.071 8.34578 177.978 8.61152C178.861 8.8699 179.72 9.18427 180.551 9.55047C181.417 9.93224 182.447 9.74275 183.055 9.01758L184.285 7.55233C184.995 6.70629 186.256 6.59595 187.102 7.30588L190.736 10.3546C191.582 11.0647 191.693 12.3263 190.983 13.1724L189.75 14.6416C189.141 15.3665 189.133 16.4132 189.659 17.1998C190.166 17.957 190.624 18.7486 191.032 19.5702C191.451 20.4166 192.36 20.9308 193.291 20.7668L195.175 20.4344C196.263 20.2425 197.3 20.9688 197.492 22.0565L198.316 26.7279C198.508 27.8157 197.782 28.8531 196.694 29.0449L194.811 29.3769C193.879 29.5412 193.201 30.3371 193.098 31.2773C192.997 32.1956 192.838 33.0964 192.623 33.9759C192.399 34.895 192.764 35.8754 193.584 36.3484L195.238 37.3032C196.194 37.8555 196.522 39.0787 195.97 40.0352L193.598 44.1432C193.476 44.3549 193.321 44.5358 193.143 44.6832C194.751 40.7916 194.778 35.5545 188.294 33.4847C185.822 32.6954 183.942 32.6343 182.436 33.0117C182.928 31.7535 183.199 30.3849 183.199 28.9543C183.199 22.7977 178.19 17.7885 172.033 17.7885C165.876 17.7885 160.867 22.7977 160.867 28.9543C160.867 30.6578 161.251 32.2734 161.936 33.7194H160.17V38.3346H163.107V53.6619Z" fill="white"/>
<path fill-rule="evenodd" clip-rule="evenodd" d="M221.429 55.4067C221.088 54.3559 219.961 53.7798 218.91 54.1197L218.585 54.2249C217.686 54.5156 216.718 54.1289 216.162 53.3653C215.958 53.0842 215.744 52.8108 215.522 52.5454C214.914 51.8201 214.774 50.7843 215.276 49.9823L215.458 49.6918C216.045 48.7557 215.761 47.5215 214.825 46.935L212.911 45.7358C211.975 45.1494 210.741 45.4326 210.155 46.3685L209.974 46.6562C209.471 47.4584 208.478 47.7838 207.56 47.5532C207.225 47.4692 206.887 47.3964 206.545 47.3353C205.614 47.1688 204.841 46.4657 204.711 45.5288L204.664 45.1952C204.512 44.1011 203.502 43.3378 202.407 43.4903L200.17 43.8022C199.076 43.9546 198.313 44.965 198.465 46.059L198.512 46.393C198.643 47.3299 198.092 48.2173 197.242 48.6322C196.93 48.7845 196.624 48.9471 196.325 49.1195C195.505 49.5924 194.46 49.5507 193.757 48.9163L193.506 48.6893C192.686 47.9492 191.421 48.0139 190.681 48.8339L189.168 50.5108C188.427 51.3307 188.492 52.5951 189.312 53.3353L189.568 53.5662C190.27 54.2002 190.418 55.2342 190.032 56.0978C189.891 56.4139 189.76 56.7353 189.64 57.0615C189.315 57.9484 188.489 58.5854 187.544 58.5513L187.203 58.5389C186.099 58.499 185.172 59.3615 185.132 60.4653L185.051 62.7224C185.011 63.8262 185.873 64.7534 186.977 64.7934L187.316 64.8057C188.261 64.84 189.039 65.5362 189.299 66.4455C189.395 66.781 189.501 67.1112 189.619 67.4359C189.941 68.3254 189.718 69.346 188.972 69.9276L188.706 70.1352C187.835 70.8142 187.679 72.0709 188.358 72.9421L189.746 74.7235C190.425 75.5947 191.682 75.7505 192.553 75.0716L192.828 74.8579C193.573 74.2771 194.616 74.3094 195.399 74.8384C195.686 75.0328 195.981 75.2175 196.281 75.3921C197.098 75.8662 197.581 76.7899 197.383 77.7132L197.311 78.0527C197.079 79.133 197.768 80.1961 198.848 80.4269L201.058 80.8988C202.138 81.1295 203.2 80.4413 203.431 79.3614L203.502 79.0294C203.7 78.1049 204.52 77.4592 205.461 77.3606C205.633 77.3425 205.805 77.3215 205.978 77.2975C206.151 77.2734 206.324 77.2463 206.495 77.2164C207.425 77.0537 208.389 77.45 208.832 78.2843L208.992 78.5861C209.509 79.5619 210.72 79.9334 211.696 79.4159L213.691 78.3575C214.667 77.84 215.039 76.6294 214.521 75.6535L214.359 75.3481C213.917 74.5137 214.129 73.4927 214.785 72.813C215.026 72.5628 215.259 72.3046 215.482 72.0389C216.09 71.3159 217.085 71 217.96 71.355L218.282 71.4856C219.306 71.9007 220.472 71.4073 220.887 70.3837L221.736 68.2903C222.151 67.2667 221.658 66.1005 220.634 65.6854L220.321 65.5583C219.444 65.2029 218.951 64.2826 219.017 63.3392C219.041 62.9944 219.054 62.6469 219.054 62.2974C219.056 61.3521 219.614 60.4703 220.513 60.1792L220.837 60.0744C221.888 59.7342 222.464 58.6065 222.124 57.5556L221.429 55.4067ZM204.988 70.1886C200.622 70.7964 196.576 67.7402 195.968 63.375C195.359 59.0095 198.416 54.9627 202.782 54.3551C207.147 53.7463 211.192 56.803 211.802 61.1689C212.409 65.5339 209.353 69.5795 204.988 70.1886Z" fill="white"/>
<path fill-rule="evenodd" clip-rule="evenodd" d="M229.308 30.0849C229.279 31.04 228.482 31.7913 227.527 31.7629C226.71 31.7386 226 32.2945 225.717 33.061C225.65 33.2419 225.579 33.4213 225.503 33.5989C225.184 34.3506 225.318 35.2419 225.928 35.7852C226.641 36.4205 226.704 37.5138 226.069 38.2271L225.082 39.3351C224.448 40.0476 223.356 40.1108 222.643 39.4763C222.033 38.9336 221.134 38.9041 220.424 39.3083C220.34 39.3564 220.255 39.4035 220.169 39.4497C220.083 39.4958 219.998 39.5406 219.912 39.5844C219.183 39.9541 218.712 40.7225 218.83 41.5306C218.967 42.4744 218.314 43.3509 217.37 43.4887L215.901 43.7033C214.956 43.8414 214.077 43.1866 213.939 42.241C213.821 41.4326 213.151 40.83 212.347 40.6831C212.158 40.6485 211.97 40.6094 211.782 40.5659C210.986 40.3807 210.131 40.6674 209.701 41.3629C209.199 42.1761 208.132 42.4282 207.319 41.926L206.056 41.1461C205.245 40.6452 204.994 39.5817 205.494 38.7706C205.923 38.0758 205.796 37.1839 205.274 36.5557C205.151 36.4068 205.03 36.2544 204.913 36.0984C204.423 35.4454 203.585 35.1147 202.809 35.371C201.904 35.6704 200.927 35.179 200.628 34.2735L200.161 32.8619C199.862 31.9559 200.354 30.9787 201.26 30.679C202.035 30.4227 202.511 29.658 202.516 28.8417C202.517 28.6487 202.523 28.4561 202.534 28.2639C202.578 27.4474 202.148 26.6539 201.389 26.3513C200.502 25.998 200.069 24.9927 200.422 24.1056L200.971 22.7248C201.324 21.8389 202.328 21.4066 203.214 21.7592C203.973 22.0614 204.83 21.7805 205.358 21.1568C205.483 21.0094 205.611 20.8647 205.744 20.7229C206.301 20.1263 206.481 19.2435 206.094 18.5247C205.642 17.6852 205.956 16.6384 206.796 16.1863L208.107 15.4802C208.946 15.0282 209.993 15.3422 210.445 16.1815C210.832 16.9001 211.667 17.2357 212.472 17.0988C212.663 17.0663 212.854 17.0386 213.046 17.0156C213.858 16.918 214.565 16.3573 214.731 15.5567C214.924 14.6231 215.838 14.0231 216.772 14.2165L218.227 14.5179C219.161 14.7114 219.762 15.6258 219.569 16.5604C219.403 17.3612 219.829 18.1571 220.535 18.569C220.702 18.6662 220.867 18.7676 221.029 18.873C221.714 19.3177 222.614 19.3408 223.254 18.835C224.003 18.2436 225.089 18.3711 225.681 19.1198L226.601 20.2849C227.193 21.0336 227.065 22.1201 226.317 22.7116C225.676 23.2176 225.49 24.0992 225.766 24.8677C225.832 25.0516 225.893 25.2364 225.949 25.4219C226.187 26.2028 226.861 26.7998 227.677 26.8241C228.63 26.8524 229.38 27.648 229.352 28.6011L229.308 30.0849ZM208.935 31.8974C210.584 34.9605 214.418 36.1106 217.483 34.4608C220.546 32.8108 221.695 28.9772 220.047 25.9134C218.396 22.8498 214.562 21.6989 211.499 23.3491C208.434 24.9981 207.284 28.8338 208.935 31.8974Z" fill="white"/>
</g>
<path d="M149.795 31.12C147.534 31.12 145.912 30.544 144.931 29.392C143.992 28.24 143.523 26.8107 143.523 25.104C143.523 23.3973 144.035 21.9893 145.059 20.88C146.126 19.7707 147.726 19.216 149.859 19.216C151.992 19.216 153.614 19.728 154.723 20.752C155.832 21.7333 156.387 23.1627 156.387 25.04C156.387 26.8747 155.854 28.3467 154.787 29.456C153.72 30.5653 152.056 31.12 149.795 31.12Z" fill="#4F4F4F"/>
<path d="M140.131 35.536H155.811V64.848H159.395V66H140.387V64.848H143.907V36.688H140.131V35.536Z" fill="#4F4F4F"/>
<path d="M57.1842 36.688H57.1785V35.536C61.9712 31.8182 61.9257 28.388 57.3122 20.0331C66.6031 23.8778 69.1258 27.3 69.0882 35.536V64.848H72.6082V66H58.0162L57.3122 61.328C56.6296 63.0347 55.6056 64.3573 54.2402 65.296C52.9176 66.192 50.9336 66.64 48.2882 66.64C41.6749 66.64 38.3682 63.0773 38.3682 55.952V36.688H38.3642V35.536C38.3211 27.0313 41.1537 23.7552 50.2722 20.0331C46.249 28.2365 46.0204 31.7539 50.2722 35.536V57.488C50.2722 60.048 50.4429 61.7333 50.7842 62.544C51.1682 63.3547 51.8936 63.76 52.9602 63.76C54.0696 63.76 55.0509 63.0987 55.9042 61.776C56.7576 60.4533 57.1842 58.6187 57.1842 56.272V36.688Z" fill="#4F4F4F"/>
<path d="M0.191992 35.536V36.688H2.81599L13.76 66H19.392L17.984 69.968C16.7467 73.5093 15.4453 76.1333 14.08 77.84C12.7147 79.5893 11.1573 80.464 9.40799 80.464C8.51199 80.464 7.93599 80.144 7.67999 79.504C7.42399 78.864 7.46666 78.0533 7.80799 77.072H10.048C10.304 76.176 10.432 75.408 10.432 74.768C10.432 71.824 8.66133 70.352 5.11999 70.352C3.58399 70.352 2.34666 70.8213 1.40799 71.76C0.469326 72.6987 -7.62939e-06 74.064 -7.62939e-06 75.856C-7.62939e-06 77.648 0.725326 79.12 2.17599 80.272C3.62666 81.424 5.61066 82 8.12799 82C10.6453 82 12.7787 81.1893 14.528 79.568C16.2773 77.9893 17.856 75.1947 19.264 71.184L31.232 36.688H34.432V35.536H25.408V36.688H29.696L22.272 57.936L15.296 36.688H18.752V35.536H0.191992Z" fill="#4F4F4F"/>
<path d="M95.5755 37.328C93.9968 37.328 92.6102 38.352 91.4155 40.4C90.2208 42.448 89.6235 44.88 89.6235 47.696V64.848H94.1675V66H74.1995V64.848H77.7195V36.688H74.1995V35.536H89.6235V41.68C90.1782 39.504 91.2448 37.84 92.8235 36.688C94.4022 35.4933 96.1942 34.896 98.1995 34.896C100.205 34.896 101.826 35.472 103.063 36.624C104.343 37.7333 104.983 39.3333 104.983 41.424C104.983 43.472 104.514 45.0507 103.575 46.16C102.637 47.2693 101.186 47.824 99.2235 47.824C97.3035 47.824 95.8742 47.184 94.9355 45.904C94.0395 44.624 93.9328 42.8533 94.6155 40.592H96.9195C97.9862 38.416 97.5382 37.328 95.5755 37.328Z" fill="#4F4F4F"/>
<path fill-rule="evenodd" clip-rule="evenodd" d="M133.78 31.12L131.988 32.208C132.031 33.2747 132.394 34.1067 133.076 34.704C133.802 35.2587 134.698 35.536 135.764 35.536C136.874 35.536 137.812 35.1947 138.58 34.512C139.348 33.7867 139.732 32.6987 139.732 31.248C139.732 29.7973 139.242 28.6667 138.26 27.856C137.322 27.0027 136.063 26.576 134.484 26.576C132.906 26.576 131.476 27.1093 130.196 28.176C128.916 29.2427 128.276 30.9707 128.276 33.36C128.276 34.2987 128.404 35.344 128.66 36.496C126.698 35.4293 124.33 34.896 121.556 34.896C116.948 34.896 113.492 35.8773 111.188 37.84C108.884 39.8027 107.732 42.384 107.732 45.584C107.732 50.6613 110.207 53.904 115.156 55.312C112.426 56.976 110.527 58.384 109.46 59.536C108.394 60.6453 107.86 62.0533 107.86 63.76C107.86 65.424 108.607 66.832 110.1 67.984C111.594 69.136 114.068 69.712 117.524 69.712H123.732C126.975 69.712 129.13 70.0107 130.196 70.608C131.306 71.248 131.86 72.4853 131.86 74.32C131.86 76.1547 130.964 77.6907 129.172 78.928C127.38 80.1653 124.82 80.784 121.492 80.784C116.031 80.784 113.3 78.9493 113.3 75.28C113.3 74.1707 113.471 72.9973 113.812 71.76L109.972 70.032C106.687 70.9707 105.044 72.6773 105.044 75.152C105.044 79.7173 110.314 82 120.852 82C127.039 82 131.583 80.8907 134.484 78.672C137.428 76.496 138.9 73.5307 138.9 69.776C138.9 62.8213 134.058 59.344 124.372 59.344H117.844C115.114 59.344 113.748 59.0453 113.748 58.448C113.748 57.8507 114.687 56.9547 116.564 55.76C118.356 56.1013 120.084 56.272 121.748 56.272C125.759 56.272 128.938 55.3333 131.284 53.456C133.631 51.5787 134.804 48.9547 134.804 45.584C134.804 42.1707 133.183 39.376 129.94 37.2C129.642 35.7493 129.492 34.4693 129.492 33.36C129.492 30.544 130.41 29.136 132.244 29.136C133.524 29.136 134.036 29.7973 133.78 31.12ZM118.42 47.632V44.176C118.42 40.9333 118.676 38.7787 119.188 37.712C119.7 36.6027 120.447 36.048 121.428 36.048C122.452 36.048 123.178 36.5813 123.604 37.648C124.031 38.672 124.244 40.848 124.244 44.176V47.312C124.244 50.4267 124.01 52.496 123.54 53.52C123.114 54.5013 122.388 54.992 121.364 54.992C120.383 54.992 119.636 54.48 119.124 53.456C118.655 52.432 118.42 50.4907 118.42 47.632Z" fill="#4F4F4F"/>
<path d="M178.415 40.4C179.61 38.352 180.997 37.328 182.575 37.328C184.538 37.328 184.986 38.416 183.919 40.592H181.615C180.933 42.8533 181.039 44.624 181.935 45.904C182.874 47.184 184.303 47.824 186.223 47.824C188.186 47.824 189.637 47.2693 190.575 46.16C191.514 45.0507 191.983 43.472 191.983 41.424C191.983 39.3333 191.343 37.7333 190.063 36.624C188.826 35.472 187.205 34.896 185.199 34.896C183.194 34.896 181.402 35.4933 179.823 36.688C178.245 37.84 177.178 39.504 176.623 41.68V35.536H161.199V36.688H164.719V64.848H161.199V66H181.167V64.848H176.623V47.696C176.623 44.88 177.221 42.448 178.415 40.4Z" fill="#4F4F4F"/>
<defs>
<clipPath id="clip0_5_107">
<rect width="84" height="84" fill="white" transform="translate(145.403)"/>
</clipPath>
</defs>
</svg>
